<svg xmlns="http://www.w3.org/2000/svg" xmlns:xlink="http://www.w3.org/1999/xlink" width="1097" height="506"><source><![CDATA[Title: Balance Inquiry Transaction
Customer->ATM: getBalance(Account)
ATM->Transaction: balanceInquiryTransaction(Account)
Transaction->Account: getBalance()
Account->CheckingAccount: getBalance()
CheckingAccount-->Account: Balance
Account-->Transaction: Balance
Transaction-->ATM: Balance
ATM->Screen: displayMessage(Balance)
Screen-->Customer: showMessage()]]></source><desc>Balance Inquiry Transaction</desc><defs><marker id="markerArrowBlock" markerHeight="5" markerWidth="5" orient="auto" refX="5" refY="2.5" viewBox="0 0 5 5"><path d="M 0 0 L 5 2.5 L 0 5 z"/></marker><marker id="markerArrowOpen" markerHeight="16" markerWidth="4" orient="auto" refX="9.6" refY="8" viewBox="0 0 9.6 16"><path d="M 9.6,8 1.92,16 0,13.7 5.76,8 0,2.286 1.92,0 9.6,8 z"/></marker></defs><g class="title"><rect width="269.234" height="28" x="10" y="10" fill="#fff" stroke="#000" style="stroke-width:2"/><text x="15" y="29.5" style="font-size:16px;font-family:&quot;Andale Mono&quot;,monospace"><tspan x="15">Balance Inquiry Transaction</tspan></text></g><g class="actor"><rect width="96.813" height="38" x="10" y="48" fill="#fff" stroke="#000" style="stroke-width:2"/><text x="20" y="72.5" style="font-size:16px;font-family:&quot;Andale Mono&quot;,monospace"><tspan x="20">Customer</tspan></text></g><g class="actor"><rect width="96.813" height="38" x="10" y="448" fill="#fff" stroke="#000" style="stroke-width:2"/><text x="20" y="472.5" style="font-size:16px;font-family:&quot;Andale Mono&quot;,monospace"><tspan x="20">Customer</tspan></text></g><line x1="58.406" x2="58.406" y1="86" y2="448" fill="none" stroke="#000" style="stroke-width:2"/><g class="actor"><rect width="48.797" height="38" x="236.43" y="48" fill="#fff" stroke="#000" style="stroke-width:2"/><text x="246.43" y="72.5" style="font-size:16px;font-family:&quot;Andale Mono&quot;,monospace"><tspan x="246.43">ATM</tspan></text></g><g class="actor"><rect width="48.797" height="38" x="236.43" y="448" fill="#fff" stroke="#000" style="stroke-width:2"/><text x="246.43" y="472.5" style="font-size:16px;font-family:&quot;Andale Mono&quot;,monospace"><tspan x="246.43">ATM</tspan></text></g><line x1="260.828" x2="260.828" y1="86" y2="448" fill="none" stroke="#000" style="stroke-width:2"/><g class="actor"><rect width="125.609" height="38" x="544.477" y="48" fill="#fff" stroke="#000" style="stroke-width:2"/><text x="554.477" y="72.5" style="font-size:16px;font-family:&quot;Andale Mono&quot;,monospace"><tspan x="554.477">Transaction</tspan></text></g><g class="actor"><rect width="125.609" height="38" x="544.477" y="448" fill="#fff" stroke="#000" style="stroke-width:2"/><text x="554.477" y="472.5" style="font-size:16px;font-family:&quot;Andale Mono&quot;,monospace"><tspan x="554.477">Transaction</tspan></text></g><line x1="607.281" x2="607.281" y1="86" y2="448" fill="none" stroke="#000" style="stroke-width:2"/><g class="actor"><rect width="87.203" height="38" x="698.898" y="48" fill="#fff" stroke="#000" style="stroke-width:2"/><text x="708.898" y="72.5" style="font-size:16px;font-family:&quot;Andale Mono&quot;,monospace"><tspan x="708.898">Account</tspan></text></g><g class="actor"><rect width="87.203" height="38" x="698.898" y="448" fill="#fff" stroke="#000" style="stroke-width:2"/><text x="708.898" y="472.5" style="font-size:16px;font-family:&quot;Andale Mono&quot;,monospace"><tspan x="708.898">Account</tspan></text></g><line x1="742.5" x2="742.5" y1="86" y2="448" fill="none" stroke="#000" style="stroke-width:2"/><g class="actor"><rect width="164.016" height="38" x="806.102" y="48" fill="#fff" stroke="#000" style="stroke-width:2"/><text x="816.102" y="72.5" style="font-size:16px;font-family:&quot;Andale Mono&quot;,monospace"><tspan x="816.102">CheckingAccount</tspan></text></g><g class="actor"><rect width="164.016" height="38" x="806.102" y="448" fill="#fff" stroke="#000" style="stroke-width:2"/><text x="816.102" y="472.5" style="font-size:16px;font-family:&quot;Andale Mono&quot;,monospace"><tspan x="816.102">CheckingAccount</tspan></text></g><line x1="888.109" x2="888.109" y1="86" y2="448" fill="none" stroke="#000" style="stroke-width:2"/><g class="actor"><rect width="77.609" height="38" x="990.117" y="48" fill="#fff" stroke="#000" style="stroke-width:2"/><text x="1000.117" y="72.5" style="font-size:16px;font-family:&quot;Andale Mono&quot;,monospace"><tspan x="1000.117">Screen</tspan></text></g><g class="actor"><rect width="77.609" height="38" x="990.117" y="448" fill="#fff" stroke="#000" style="stroke-width:2"/><text x="1000.117" y="472.5" style="font-size:16px;font-family:&quot;Andale Mono&quot;,monospace"><tspan x="1000.117">Screen</tspan></text></g><line x1="1028.922" x2="1028.922" y1="86" y2="448" fill="none" stroke="#000" style="stroke-width:2"/><g class="signal"><text x="68.406" y="116.5" style="font-size:16px;font-family:&quot;Andale Mono&quot;,monospace"><tspan x="68.406">getBalance(Account)</tspan></text><line x1="58.406" x2="260.828" y1="124" y2="124" fill="none" stroke="#000" style="stroke-width:2;marker-end:url(#markerArrowBlock)"/></g><g class="signal"><text x="270.828" y="154.5" style="font-size:16px;font-family:&quot;Andale Mono&quot;,monospace"><tspan x="270.828">balanceInquiryTransaction(Account)</tspan></text><line x1="260.828" x2="607.281" y1="162" y2="162" fill="none" stroke="#000" style="stroke-width:2;marker-end:url(#markerArrowBlock)"/></g><g class="signal"><text x="617.281" y="192.5" style="font-size:16px;font-family:&quot;Andale Mono&quot;,monospace"><tspan x="617.281">getBalance()</tspan></text><line x1="607.281" x2="742.5" y1="200" y2="200" fill="none" stroke="#000" style="stroke-width:2;marker-end:url(#markerArrowBlock)"/></g><g class="signal"><text x="757.695" y="230.5" style="font-size:16px;font-family:&quot;Andale Mono&quot;,monospace"><tspan x="757.695">getBalance()</tspan></text><line x1="742.5" x2="888.109" y1="238" y2="238" fill="none" stroke="#000" style="stroke-width:2;marker-end:url(#markerArrowBlock)"/></g><g class="signal"><text x="781.703" y="268.5" style="font-size:16px;font-family:&quot;Andale Mono&quot;,monospace"><tspan x="781.703">Balance</tspan></text><line x1="888.109" x2="742.5" y1="276" y2="276" fill="none" stroke="#000" style="stroke-width:2;stroke-dasharray:6,2;marker-end:url(#markerArrowBlock)"/></g><g class="signal"><text x="641.289" y="306.5" style="font-size:16px;font-family:&quot;Andale Mono&quot;,monospace"><tspan x="641.289">Balance</tspan></text><line x1="742.5" x2="607.281" y1="314" y2="314" fill="none" stroke="#000" style="stroke-width:2;stroke-dasharray:6,2;marker-end:url(#markerArrowBlock)"/></g><g class="signal"><text x="400.453" y="344.5" style="font-size:16px;font-family:&quot;Andale Mono&quot;,monospace"><tspan x="400.453">Balance</tspan></text><line x1="607.281" x2="260.828" y1="352" y2="352" fill="none" stroke="#000" style="stroke-width:2;stroke-dasharray:6,2;marker-end:url(#markerArrowBlock)"/></g><g class="signal"><text x="534.461" y="382.5" style="font-size:16px;font-family:&quot;Andale Mono&quot;,monospace"><tspan x="534.461">displayMessage(Balance)</tspan></text><line x1="260.828" x2="1028.922" y1="390" y2="390" fill="none" stroke="#000" style="stroke-width:2;marker-end:url(#markerArrowBlock)"/></g><g class="signal"><text x="481.258" y="420.5" style="font-size:16px;font-family:&quot;Andale Mono&quot;,monospace"><tspan x="481.258">showMessage()</tspan></text><line x1="1028.922" x2="58.406" y1="428" y2="428" fill="none" stroke="#000" style="stroke-width:2;stroke-dasharray:6,2;marker-end:url(#markerArrowBlock)"/></g></svg>