<svg xmlns="http://www.w3.org/2000/svg" xmlns:xlink="http://www.w3.org/1999/xlink" width="546" height="316"><source><![CDATA[Title: Search Catalog
Customer->Catalog: searchProducts(string)
Catalog->Product: getInfo(string)
Product-->Catalog: Full Product Info
Catalog-->Customer: Matching Products Info]]></source><desc>Search Catalog</desc><defs><marker id="markerArrowBlock" markerHeight="5" markerWidth="5" orient="auto" refX="5" refY="2.5" viewBox="0 0 5 5"><path d="M 0 0 L 5 2.5 L 0 5 z"/></marker><marker id="markerArrowOpen" markerHeight="16" markerWidth="4" orient="auto" refX="9.6" refY="8" viewBox="0 0 9.6 16"><path d="M 9.6,8 1.92,16 0,13.7 5.76,8 0,2.286 1.92,0 9.6,8 z"/></marker></defs><g class="title"><rect width="144.422" height="28" x="10" y="10" fill="#fff" stroke="#000" style="stroke-width:2"/><text x="15" y="29.5" style="font-size:16px;font-family:&quot;Andale Mono&quot;,monospace"><tspan x="15">Search Catalog</tspan></text></g><g class="actor"><rect width="96.813" height="38" x="10" y="48" fill="#fff" stroke="#000" style="stroke-width:2"/><text x="20" y="72.5" style="font-size:16px;font-family:&quot;Andale Mono&quot;,monospace"><tspan x="20">Customer</tspan></text></g><g class="actor"><rect width="96.813" height="38" x="10" y="258" fill="#fff" stroke="#000" style="stroke-width:2"/><text x="20" y="282.5" style="font-size:16px;font-family:&quot;Andale Mono&quot;,monospace"><tspan x="20">Customer</tspan></text></g><line x1="58.406" x2="58.406" y1="86" y2="258" fill="none" stroke="#000" style="stroke-width:2"/><g class="actor"><rect width="87.203" height="38" x="246.039" y="48" fill="#fff" stroke="#000" style="stroke-width:2"/><text x="256.039" y="72.5" style="font-size:16px;font-family:&quot;Andale Mono&quot;,monospace"><tspan x="256.039">Catalog</tspan></text></g><g class="actor"><rect width="87.203" height="38" x="246.039" y="258" fill="#fff" stroke="#000" style="stroke-width:2"/><text x="256.039" y="282.5" style="font-size:16px;font-family:&quot;Andale Mono&quot;,monospace"><tspan x="256.039">Catalog</tspan></text></g><line x1="289.641" x2="289.641" y1="86" y2="258" fill="none" stroke="#000" style="stroke-width:2"/><g class="actor"><rect width="87.203" height="38" x="429.258" y="48" fill="#fff" stroke="#000" style="stroke-width:2"/><text x="439.258" y="72.5" style="font-size:16px;font-family:&quot;Andale Mono&quot;,monospace"><tspan x="439.258">Product</tspan></text></g><g class="actor"><rect width="87.203" height="38" x="429.258" y="258" fill="#fff" stroke="#000" style="stroke-width:2"/><text x="439.258" y="282.5" style="font-size:16px;font-family:&quot;Andale Mono&quot;,monospace"><tspan x="439.258">Product</tspan></text></g><line x1="472.859" x2="472.859" y1="86" y2="258" fill="none" stroke="#000" style="stroke-width:2"/><g class="signal"><text x="68.406" y="116.5" style="font-size:16px;font-family:&quot;Andale Mono&quot;,monospace"><tspan x="68.406">searchProducts(string)</tspan></text><line x1="58.406" x2="289.641" y1="124" y2="124" fill="none" stroke="#000" style="stroke-width:2;marker-end:url(#markerArrowBlock)"/></g><g class="signal"><text x="309.242" y="154.5" style="font-size:16px;font-family:&quot;Andale Mono&quot;,monospace"><tspan x="309.242">getInfo(string)</tspan></text><line x1="289.641" x2="472.859" y1="162" y2="162" fill="none" stroke="#000" style="stroke-width:2;marker-end:url(#markerArrowBlock)"/></g><g class="signal"><text x="299.641" y="192.5" style="font-size:16px;font-family:&quot;Andale Mono&quot;,monospace"><tspan x="299.641">Full Product Info</tspan></text><line x1="472.859" x2="289.641" y1="200" y2="200" fill="none" stroke="#000" style="stroke-width:2;stroke-dasharray:6,2;marker-end:url(#markerArrowBlock)"/></g><g class="signal"><text x="68.406" y="230.5" style="font-size:16px;font-family:&quot;Andale Mono&quot;,monospace"><tspan x="68.406">Matching Products Info</tspan></text><line x1="289.641" x2="58.406" y1="238" y2="238" fill="none" stroke="#000" style="stroke-width:2;stroke-dasharray:6,2;marker-end:url(#markerArrowBlock)"/></g></svg>