<svg xmlns="http://www.w3.org/2000/svg" xmlns:xlink="http://www.w3.org/1999/xlink" width="858" height="544"><source><![CDATA[Title: Create a new Question
Member->Question: setTitle()
Member->Question: setBody()
Member->Tag: getTags(tagText)
Tag-->Member: tagId/Error
Member->Tag: createTag(tagText, tagDescription)
Member->Question: addTag(tag)
Member->Question: createQuestion(questionText, tagId, bountyValue)
Question->Bounty: createBounty(bountyValue)
Bounty-->Question: bounty
Member->Question: publishQuestion()





]]></source><desc>Create a new Question</desc><defs><marker id="markerArrowBlock" markerHeight="5" markerWidth="5" orient="auto" refX="5" refY="2.5" viewBox="0 0 5 5"><path d="M 0 0 L 5 2.5 L 0 5 z"/></marker><marker id="markerArrowOpen" markerHeight="16" markerWidth="4" orient="auto" refX="9.6" refY="8" viewBox="0 0 9.6 16"><path d="M 9.6,8 1.92,16 0,13.7 5.76,8 0,2.286 1.92,0 9.6,8 z"/></marker></defs><g class="title"><rect width="211.625" height="28" x="10" y="10" fill="#fff" stroke="#000" style="stroke-width:2"/><text x="15" y="29.5" style="font-size:16px;font-family:&quot;Andale Mono&quot;,monospace"><tspan x="15">Create a new Question</tspan></text></g><g class="actor"><rect width="77.609" height="38" x="10" y="48" fill="#fff" stroke="#000" style="stroke-width:2"/><text x="20" y="72.5" style="font-size:16px;font-family:&quot;Andale Mono&quot;,monospace"><tspan x="20">Member</tspan></text></g><g class="actor"><rect width="77.609" height="38" x="10" y="486" fill="#fff" stroke="#000" style="stroke-width:2"/><text x="20" y="510.5" style="font-size:16px;font-family:&quot;Andale Mono&quot;,monospace"><tspan x="20">Member</tspan></text></g><line x1="48.805" x2="48.805" y1="86" y2="486" fill="none" stroke="#000" style="stroke-width:2"/><g class="actor"><rect width="96.813" height="38" x="481.273" y="48" fill="#fff" stroke="#000" style="stroke-width:2"/><text x="491.273" y="72.5" style="font-size:16px;font-family:&quot;Andale Mono&quot;,monospace"><tspan x="491.273">Question</tspan></text></g><g class="actor"><rect width="96.813" height="38" x="481.273" y="486" fill="#fff" stroke="#000" style="stroke-width:2"/><text x="491.273" y="510.5" style="font-size:16px;font-family:&quot;Andale Mono&quot;,monospace"><tspan x="491.273">Question</tspan></text></g><line x1="529.68" x2="529.68" y1="86" y2="486" fill="none" stroke="#000" style="stroke-width:2"/><g class="actor"><rect width="48.797" height="38" x="598.086" y="48" fill="#fff" stroke="#000" style="stroke-width:2"/><text x="608.086" y="72.5" style="font-size:16px;font-family:&quot;Andale Mono&quot;,monospace"><tspan x="608.086">Tag</tspan></text></g><g class="actor"><rect width="48.797" height="38" x="598.086" y="486" fill="#fff" stroke="#000" style="stroke-width:2"/><text x="608.086" y="510.5" style="font-size:16px;font-family:&quot;Andale Mono&quot;,monospace"><tspan x="608.086">Tag</tspan></text></g><line x1="622.484" x2="622.484" y1="86" y2="486" fill="none" stroke="#000" style="stroke-width:2"/><g class="actor"><rect width="77.609" height="38" x="750.906" y="48" fill="#fff" stroke="#000" style="stroke-width:2"/><text x="760.906" y="72.5" style="font-size:16px;font-family:&quot;Andale Mono&quot;,monospace"><tspan x="760.906">Bounty</tspan></text></g><g class="actor"><rect width="77.609" height="38" x="750.906" y="486" fill="#fff" stroke="#000" style="stroke-width:2"/><text x="760.906" y="510.5" style="font-size:16px;font-family:&quot;Andale Mono&quot;,monospace"><tspan x="760.906">Bounty</tspan></text></g><line x1="789.711" x2="789.711" y1="86" y2="486" fill="none" stroke="#000" style="stroke-width:2"/><g class="signal"><text x="241.234" y="116.5" style="font-size:16px;font-family:&quot;Andale Mono&quot;,monospace"><tspan x="241.234">setTitle()</tspan></text><line x1="48.805" x2="529.68" y1="124" y2="124" fill="none" stroke="#000" style="stroke-width:2;marker-end:url(#markerArrowBlock)"/></g><g class="signal"><text x="246.039" y="154.5" style="font-size:16px;font-family:&quot;Andale Mono&quot;,monospace"><tspan x="246.039">setBody()</tspan></text><line x1="48.805" x2="529.68" y1="162" y2="162" fill="none" stroke="#000" style="stroke-width:2;marker-end:url(#markerArrowBlock)"/></g><g class="signal"><text x="258.832" y="192.5" style="font-size:16px;font-family:&quot;Andale Mono&quot;,monospace"><tspan x="258.832">getTags(tagText)</tspan></text><line x1="48.805" x2="622.484" y1="200" y2="200" fill="none" stroke="#000" style="stroke-width:2;marker-end:url(#markerArrowBlock)"/></g><g class="signal"><text x="282.84" y="230.5" style="font-size:16px;font-family:&quot;Andale Mono&quot;,monospace"><tspan x="282.84">tagId/Error</tspan></text><line x1="622.484" x2="48.805" y1="238" y2="238" fill="none" stroke="#000" style="stroke-width:2;stroke-dasharray:6,2;marker-end:url(#markerArrowBlock)"/></g><g class="signal"><text x="172.418" y="268.5" style="font-size:16px;font-family:&quot;Andale Mono&quot;,monospace"><tspan x="172.418">createTag(tagText, tagDescription)</tspan></text><line x1="48.805" x2="622.484" y1="276" y2="276" fill="none" stroke="#000" style="stroke-width:2;marker-end:url(#markerArrowBlock)"/></g><g class="signal"><text x="236.438" y="306.5" style="font-size:16px;font-family:&quot;Andale Mono&quot;,monospace"><tspan x="236.438">addTag(tag)</tspan></text><line x1="48.805" x2="529.68" y1="314" y2="314" fill="none" stroke="#000" style="stroke-width:2;marker-end:url(#markerArrowBlock)"/></g><g class="signal"><text x="58.805" y="344.5" style="font-size:16px;font-family:&quot;Andale Mono&quot;,monospace"><tspan x="58.805">createQuestion(questionText, tagId, bountyValue)</tspan></text><line x1="48.805" x2="529.68" y1="352" y2="352" fill="none" stroke="#000" style="stroke-width:2;marker-end:url(#markerArrowBlock)"/></g><g class="signal"><text x="539.68" y="382.5" style="font-size:16px;font-family:&quot;Andale Mono&quot;,monospace"><tspan x="539.68">createBounty(bountyValue)</tspan></text><line x1="529.68" x2="789.711" y1="390" y2="390" fill="none" stroke="#000" style="stroke-width:2;marker-end:url(#markerArrowBlock)"/></g><g class="signal"><text x="630.891" y="420.5" style="font-size:16px;font-family:&quot;Andale Mono&quot;,monospace"><tspan x="630.891">bounty</tspan></text><line x1="789.711" x2="529.68" y1="428" y2="428" fill="none" stroke="#000" style="stroke-width:2;stroke-dasharray:6,2;marker-end:url(#markerArrowBlock)"/></g><g class="signal"><text x="207.633" y="458.5" style="font-size:16px;font-family:&quot;Andale Mono&quot;,monospace"><tspan x="207.633">publishQuestion()</tspan></text><line x1="48.805" x2="529.68" y1="466" y2="466" fill="none" stroke="#000" style="stroke-width:2;marker-end:url(#markerArrowBlock)"/></g></svg>